<svg xmlns="http://www.w3.org/2000/svg" width="2500" height="1686" viewBox="0 0 2500 1686">
  <rect width="2500" height="1686" fill="#f8fafc"/>
  <rect width="2500" height="120" fill="#0f766e"/>
  <text x="80" y="78" fill="white" font-family="Tahoma, sans-serif" font-size="46" font-weight="700">เมนูผู้ดูแลอพาร์ตเมนต์</text>
  <g font-family="Tahoma, sans-serif" text-anchor="middle">
    <g><rect x="36" y="156" width="785" height="710" rx="38" fill="#e6fffb"/><circle cx="428" cy="420" r="112" fill="#0f766e"/><path d="M350 490V405l78-60 78 60v85h-48v-56h-60v56z" fill="white"/><text x="428" y="650" font-size="48" font-weight="700" fill="#134e4a">ภาพรวม</text><text x="428" y="715" font-size="30" fill="#475569">สถานะห้องพัก</text></g>
    <g><rect x="857" y="156" width="785" height="710" rx="38" fill="#eff6ff"/><circle cx="1249" cy="420" r="112" fill="#2563eb"/><path d="M1180 495h138M1198 465v-70M1249 465V345M1300 465V305" stroke="white" stroke-width="30" stroke-linecap="round"/><text x="1249" y="650" font-size="48" font-weight="700" fill="#1e3a8a">รายรับ</text><text x="1249" y="715" font-size="30" fill="#475569">วันนี้และเดือนนี้</text></g>
    <g><rect x="1678" y="156" width="785" height="710" rx="38" fill="#fff7ed"/><circle cx="2070" cy="420" r="112" fill="#ea580c"/><path d="M2005 330h130v180h-130zM2035 375h70M2035 420h70M2035 465h48" stroke="white" stroke-width="22" fill="none" stroke-linecap="round"/><text x="2070" y="650" font-size="48" font-weight="700" fill="#9a3412">บิลค้าง</text><text x="2070" y="715" font-size="30" fill="#475569">รายการที่ต้องติดตาม</text></g>
    <g><rect x="36" y="902" width="785" height="710" rx="38" fill="#f0fdf4"/><circle cx="428" cy="1166" r="112" fill="#16a34a"/><path d="M350 1245v-125h156v125M378 1120v-55h100v55M400 1170h55" stroke="white" stroke-width="24" fill="none" stroke-linecap="round"/><text x="428" y="1396" font-size="48" font-weight="700" fill="#166534">ห้องว่าง</text><text x="428" y="1461" font-size="30" fill="#475569">พร้อมเปิดเช่า</text></g>
    <g><rect x="857" y="902" width="785" height="710" rx="38" fill="#faf5ff"/><circle cx="1249" cy="1166" r="112" fill="#7e22ce"/><rect x="1174" y="1085" width="150" height="160" rx="14" fill="white"/><path d="M1205 1060v55M1293 1060v55M1205 1150h88M1205 1195h64" stroke="#7e22ce" stroke-width="18" stroke-linecap="round"/><text x="1249" y="1396" font-size="48" font-weight="700" fill="#581c87">สัญญาเช่า</text><text x="1249" y="1461" font-size="30" fill="#475569">ใกล้ครบกำหนด</text></g>
    <g><rect x="1678" y="902" width="785" height="710" rx="38" fill="#fefce8"/><circle cx="2070" cy="1166" r="112" fill="#ca8a04"/><path d="M2070 1050c-46 62-80 98-80 142a80 80 0 00160 0c0-44-34-80-80-142z" fill="white"/><path d="M2070 1200v-52M2044 1200h52" stroke="#ca8a04" stroke-width="16" stroke-linecap="round"/><text x="2070" y="1396" font-size="48" font-weight="700" fill="#854d0e">ค่าน้ำไฟ / ซ่อม</text><text x="2070" y="1461" font-size="30" fill="#475569">ต้นทุนและงานค้าง</text></g>
  </g>
</svg>
